<mxfile host="app.diagrams.net" modified="2022-07-19T16:23:26.366Z" agent="5.0 (Macintosh; Intel Mac OS X 10_15_7) AppleWebKit/605.1.15 (KHTML, like Gecko) Version/15.3 Safari/605.1.15" etag="GQfQywmBH6Sx4w2_Urzv" version="20.1.1" type="github">
  <diagram id="ONlVN_mibPTLU32uY-dU" name="Page-1">
    <mxGraphModel dx="1113" dy="759" grid="1" gridSize="10" guides="1" tooltips="1" connect="1" arrows="1" fold="1" page="1" pageScale="1" pageWidth="850" pageHeight="1100" math="0" shadow="0">
      <root>
        <mxCell id="0" />
        <mxCell id="1" parent="0" />
        <mxCell id="qlLl403qNk03ZVmU591X-13" value="Actor" style="shape=umlActor;verticalLabelPosition=bottom;verticalAlign=top;html=1;" vertex="1" parent="1">
          <mxGeometry x="150" y="60" width="30" height="60" as="geometry" />
        </mxCell>
        <mxCell id="qlLl403qNk03ZVmU591X-14" value="Script &amp;nbsp;service" style="shape=umlLifeline;perimeter=lifelinePerimeter;whiteSpace=wrap;html=1;container=1;collapsible=0;recursiveResize=0;outlineConnect=0;" vertex="1" parent="1">
          <mxGeometry x="280" y="90" width="100" height="590" as="geometry" />
        </mxCell>
        <mxCell id="qlLl403qNk03ZVmU591X-15" value="" style="html=1;points=[];perimeter=orthogonalPerimeter;" vertex="1" parent="qlLl403qNk03ZVmU591X-14">
          <mxGeometry x="45" y="60" width="10" height="530" as="geometry" />
        </mxCell>
        <mxCell id="qlLl403qNk03ZVmU591X-16" value="Jinja" style="shape=umlLifeline;perimeter=lifelinePerimeter;whiteSpace=wrap;html=1;container=1;collapsible=0;recursiveResize=0;outlineConnect=0;" vertex="1" parent="1">
          <mxGeometry x="465" y="90" width="100" height="560" as="geometry" />
        </mxCell>
        <mxCell id="qlLl403qNk03ZVmU591X-17" value="" style="html=1;points=[];perimeter=orthogonalPerimeter;" vertex="1" parent="qlLl403qNk03ZVmU591X-16">
          <mxGeometry x="50" y="240" width="10" height="50" as="geometry" />
        </mxCell>
        <mxCell id="qlLl403qNk03ZVmU591X-18" value="DB Fmon controller" style="shape=umlLifeline;perimeter=lifelinePerimeter;whiteSpace=wrap;html=1;container=1;collapsible=0;recursiveResize=0;outlineConnect=0;" vertex="1" parent="1">
          <mxGeometry x="850" y="90" width="100" height="560" as="geometry" />
        </mxCell>
        <mxCell id="qlLl403qNk03ZVmU591X-19" value="" style="html=1;points=[];perimeter=orthogonalPerimeter;" vertex="1" parent="qlLl403qNk03ZVmU591X-18">
          <mxGeometry x="50" y="140" width="10" height="50" as="geometry" />
        </mxCell>
        <mxCell id="qlLl403qNk03ZVmU591X-20" style="edgeStyle=orthogonalEdgeStyle;rounded=0;orthogonalLoop=1;jettySize=auto;html=1;exitX=1;exitY=0.5;exitDx=0;exitDy=0;entryX=0;entryY=0.5;entryDx=0;entryDy=0;" edge="1" parent="1" source="qlLl403qNk03ZVmU591X-21" target="qlLl403qNk03ZVmU591X-24">
          <mxGeometry relative="1" as="geometry" />
        </mxCell>
        <mxCell id="qlLl403qNk03ZVmU591X-21" value="Click &lt;br&gt;download button" style="rounded=0;whiteSpace=wrap;html=1;" vertex="1" parent="1">
          <mxGeometry x="150" y="950" width="120" height="60" as="geometry" />
        </mxCell>
        <mxCell id="qlLl403qNk03ZVmU591X-22" style="edgeStyle=orthogonalEdgeStyle;rounded=0;orthogonalLoop=1;jettySize=auto;html=1;exitX=1;exitY=0.5;exitDx=0;exitDy=0;entryX=0;entryY=0.5;entryDx=0;entryDy=0;" edge="1" parent="1" source="qlLl403qNk03ZVmU591X-24" target="qlLl403qNk03ZVmU591X-25">
          <mxGeometry relative="1" as="geometry">
            <Array as="points">
              <mxPoint x="470" y="980" />
              <mxPoint x="470" y="920" />
            </Array>
          </mxGeometry>
        </mxCell>
        <mxCell id="qlLl403qNk03ZVmU591X-23" style="edgeStyle=orthogonalEdgeStyle;rounded=0;orthogonalLoop=1;jettySize=auto;html=1;exitX=1;exitY=0.5;exitDx=0;exitDy=0;entryX=0;entryY=0.383;entryDx=0;entryDy=0;entryPerimeter=0;" edge="1" parent="1" source="qlLl403qNk03ZVmU591X-24" target="qlLl403qNk03ZVmU591X-26">
          <mxGeometry relative="1" as="geometry" />
        </mxCell>
        <mxCell id="qlLl403qNk03ZVmU591X-24" value="Generate link" style="rounded=0;whiteSpace=wrap;html=1;" vertex="1" parent="1">
          <mxGeometry x="310" y="950" width="120" height="60" as="geometry" />
        </mxCell>
        <mxCell id="qlLl403qNk03ZVmU591X-25" value="File 1&lt;br&gt;(truyền biến)" style="rounded=0;whiteSpace=wrap;html=1;" vertex="1" parent="1">
          <mxGeometry x="510" y="890" width="120" height="60" as="geometry" />
        </mxCell>
        <mxCell id="qlLl403qNk03ZVmU591X-26" value="File 2" style="rounded=0;whiteSpace=wrap;html=1;" vertex="1" parent="1">
          <mxGeometry x="510" y="1010" width="120" height="60" as="geometry" />
        </mxCell>
        <mxCell id="qlLl403qNk03ZVmU591X-27" value="Namespace" style="rounded=0;whiteSpace=wrap;html=1;" vertex="1" parent="1">
          <mxGeometry x="810" y="857.5" width="120" height="60" as="geometry" />
        </mxCell>
        <mxCell id="qlLl403qNk03ZVmU591X-28" value="Password" style="rounded=0;whiteSpace=wrap;html=1;" vertex="1" parent="1">
          <mxGeometry x="810" y="927.5" width="120" height="60" as="geometry" />
        </mxCell>
        <mxCell id="qlLl403qNk03ZVmU591X-29" style="edgeStyle=orthogonalEdgeStyle;rounded=0;orthogonalLoop=1;jettySize=auto;html=1;exitX=0;exitY=0.5;exitDx=0;exitDy=0;exitPerimeter=0;entryX=1;entryY=0.25;entryDx=0;entryDy=0;" edge="1" parent="1" source="qlLl403qNk03ZVmU591X-30" target="qlLl403qNk03ZVmU591X-25">
          <mxGeometry relative="1" as="geometry" />
        </mxCell>
        <mxCell id="qlLl403qNk03ZVmU591X-30" value="DB Fmon controller" style="shape=cylinder3;whiteSpace=wrap;html=1;boundedLbl=1;backgroundOutline=1;size=15;" vertex="1" parent="1">
          <mxGeometry x="670" y="820" width="60" height="80" as="geometry" />
        </mxCell>
        <mxCell id="qlLl403qNk03ZVmU591X-31" value="" style="endArrow=none;html=1;rounded=0;entryX=0;entryY=0.5;entryDx=0;entryDy=0;exitX=1;exitY=0;exitDx=0;exitDy=27.5;exitPerimeter=0;" edge="1" parent="1" source="qlLl403qNk03ZVmU591X-30" target="qlLl403qNk03ZVmU591X-27">
          <mxGeometry width="50" height="50" relative="1" as="geometry">
            <mxPoint x="720" y="850" as="sourcePoint" />
            <mxPoint x="770" y="887.5" as="targetPoint" />
          </mxGeometry>
        </mxCell>
        <mxCell id="qlLl403qNk03ZVmU591X-32" value="" style="endArrow=none;html=1;rounded=0;entryX=0;entryY=0.5;entryDx=0;entryDy=0;exitX=1;exitY=1;exitDx=0;exitDy=-15;exitPerimeter=0;" edge="1" parent="1" source="qlLl403qNk03ZVmU591X-30" target="qlLl403qNk03ZVmU591X-28">
          <mxGeometry width="50" height="50" relative="1" as="geometry">
            <mxPoint x="740" y="880" as="sourcePoint" />
            <mxPoint x="820" y="897.5" as="targetPoint" />
            <Array as="points" />
          </mxGeometry>
        </mxCell>
        <mxCell id="qlLl403qNk03ZVmU591X-33" style="edgeStyle=orthogonalEdgeStyle;rounded=0;orthogonalLoop=1;jettySize=auto;html=1;exitX=0.5;exitY=0;exitDx=0;exitDy=0;exitPerimeter=0;entryX=0.5;entryY=1;entryDx=0;entryDy=0;" edge="1" parent="1" source="qlLl403qNk03ZVmU591X-34" target="qlLl403qNk03ZVmU591X-24">
          <mxGeometry relative="1" as="geometry" />
        </mxCell>
        <mxCell id="qlLl403qNk03ZVmU591X-34" value="DB session" style="shape=cylinder3;whiteSpace=wrap;html=1;boundedLbl=1;backgroundOutline=1;size=15;" vertex="1" parent="1">
          <mxGeometry x="340" y="1070" width="60" height="80" as="geometry" />
        </mxCell>
        <mxCell id="qlLl403qNk03ZVmU591X-35" value="ID" style="rounded=0;whiteSpace=wrap;html=1;" vertex="1" parent="1">
          <mxGeometry x="240" y="1180" width="120" height="60" as="geometry" />
        </mxCell>
        <mxCell id="qlLl403qNk03ZVmU591X-36" value="Token" style="rounded=0;whiteSpace=wrap;html=1;" vertex="1" parent="1">
          <mxGeometry x="375" y="1180" width="120" height="60" as="geometry" />
        </mxCell>
        <mxCell id="qlLl403qNk03ZVmU591X-37" value="" style="endArrow=none;html=1;rounded=0;entryX=0.145;entryY=1;entryDx=0;entryDy=-4.35;entryPerimeter=0;" edge="1" parent="1" target="qlLl403qNk03ZVmU591X-34">
          <mxGeometry width="50" height="50" relative="1" as="geometry">
            <mxPoint x="300" y="1180" as="sourcePoint" />
            <mxPoint x="350" y="1140" as="targetPoint" />
          </mxGeometry>
        </mxCell>
        <mxCell id="qlLl403qNk03ZVmU591X-38" value="" style="endArrow=none;html=1;rounded=0;entryX=1;entryY=1;entryDx=0;entryDy=-15;entryPerimeter=0;" edge="1" parent="1" target="qlLl403qNk03ZVmU591X-34">
          <mxGeometry width="50" height="50" relative="1" as="geometry">
            <mxPoint x="430" y="1180" as="sourcePoint" />
            <mxPoint x="480" y="1130" as="targetPoint" />
          </mxGeometry>
        </mxCell>
        <mxCell id="qlLl403qNk03ZVmU591X-39" value="mỗi khi generate cái file này thì sinh ra một token&lt;br&gt;session nó check token xem là token chết hay chưa&lt;br&gt;toke chưa chết thì là vẫn Access được vào File download (qua link)&lt;br&gt;token chết rồi thì bắt người dùng click Download button một lần nữa" style="text;html=1;align=center;verticalAlign=middle;resizable=0;points=[];autosize=1;strokeColor=#6c8ebf;fillColor=#dae8fc;" vertex="1" parent="1">
          <mxGeometry x="160" y="1270" width="390" height="70" as="geometry" />
        </mxCell>
        <mxCell id="qlLl403qNk03ZVmU591X-40" value="Tổng hợp API:&amp;nbsp;API click download thì ra link&lt;br&gt;&lt;ul&gt;&lt;li&gt;lấy thông tin từ FB của anh huân&lt;/li&gt;&lt;li&gt;tạo ra link&amp;nbsp;&lt;/li&gt;&lt;li&gt;lưu link vào DB session&lt;/li&gt;&lt;/ul&gt;" style="text;html=1;align=center;verticalAlign=middle;resizable=0;points=[];autosize=1;strokeColor=#d6b656;fillColor=#fff2cc;" vertex="1" parent="1">
          <mxGeometry x="150" y="790" width="260" height="90" as="geometry" />
        </mxCell>
        <mxCell id="qlLl403qNk03ZVmU591X-41" value="Session DB" style="shape=umlLifeline;perimeter=lifelinePerimeter;whiteSpace=wrap;html=1;container=1;collapsible=0;recursiveResize=0;outlineConnect=0;" vertex="1" parent="1">
          <mxGeometry x="1000" y="90" width="100" height="560" as="geometry" />
        </mxCell>
        <mxCell id="qlLl403qNk03ZVmU591X-42" value="" style="html=1;points=[];perimeter=orthogonalPerimeter;" vertex="1" parent="qlLl403qNk03ZVmU591X-41">
          <mxGeometry x="45" y="470" width="10" height="80" as="geometry" />
        </mxCell>
        <mxCell id="qlLl403qNk03ZVmU591X-43" value="" style="html=1;points=[];perimeter=orthogonalPerimeter;" vertex="1" parent="qlLl403qNk03ZVmU591X-41">
          <mxGeometry x="45" y="70" width="10" height="40" as="geometry" />
        </mxCell>
        <mxCell id="qlLl403qNk03ZVmU591X-44" value="" style="html=1;points=[];perimeter=orthogonalPerimeter;" vertex="1" parent="1">
          <mxGeometry x="160" y="150" width="10" height="530" as="geometry" />
        </mxCell>
        <mxCell id="qlLl403qNk03ZVmU591X-45" value="get datasource namespace and password" style="html=1;verticalAlign=bottom;endArrow=block;entryX=0;entryY=0;rounded=0;" edge="1" parent="1" target="qlLl403qNk03ZVmU591X-19">
          <mxGeometry relative="1" as="geometry">
            <mxPoint x="340" y="230" as="sourcePoint" />
          </mxGeometry>
        </mxCell>
        <mxCell id="qlLl403qNk03ZVmU591X-46" value="return" style="html=1;verticalAlign=bottom;endArrow=open;dashed=1;endSize=8;exitX=0;exitY=0.95;rounded=0;" edge="1" parent="1" source="qlLl403qNk03ZVmU591X-19" target="qlLl403qNk03ZVmU591X-15">
          <mxGeometry relative="1" as="geometry">
            <mxPoint x="330" y="270" as="targetPoint" />
          </mxGeometry>
        </mxCell>
        <mxCell id="qlLl403qNk03ZVmU591X-47" value="flask" style="shape=umlLifeline;perimeter=lifelinePerimeter;whiteSpace=wrap;html=1;container=1;collapsible=0;recursiveResize=0;outlineConnect=0;" vertex="1" parent="1">
          <mxGeometry x="650" y="90" width="100" height="560" as="geometry" />
        </mxCell>
        <mxCell id="qlLl403qNk03ZVmU591X-48" value="" style="html=1;points=[];perimeter=orthogonalPerimeter;" vertex="1" parent="qlLl403qNk03ZVmU591X-47">
          <mxGeometry x="45" y="330" width="10" height="80" as="geometry" />
        </mxCell>
        <mxCell id="qlLl403qNk03ZVmU591X-49" value="Create template file" style="html=1;verticalAlign=bottom;endArrow=block;entryX=0;entryY=0;rounded=0;" edge="1" parent="1" source="qlLl403qNk03ZVmU591X-15" target="qlLl403qNk03ZVmU591X-17">
          <mxGeometry relative="1" as="geometry">
            <mxPoint x="329.5" y="300" as="sourcePoint" />
          </mxGeometry>
        </mxCell>
        <mxCell id="qlLl403qNk03ZVmU591X-50" value="return" style="html=1;verticalAlign=bottom;endArrow=open;dashed=1;endSize=8;exitX=0;exitY=0.95;rounded=0;" edge="1" parent="1" source="qlLl403qNk03ZVmU591X-17">
          <mxGeometry relative="1" as="geometry">
            <mxPoint x="329.5" y="376" as="targetPoint" />
          </mxGeometry>
        </mxCell>
        <mxCell id="qlLl403qNk03ZVmU591X-51" value="generate link" style="html=1;verticalAlign=bottom;endArrow=block;entryX=0;entryY=0;rounded=0;" edge="1" parent="1" source="qlLl403qNk03ZVmU591X-15" target="qlLl403qNk03ZVmU591X-48">
          <mxGeometry relative="1" as="geometry">
            <mxPoint x="625" y="420" as="sourcePoint" />
          </mxGeometry>
        </mxCell>
        <mxCell id="qlLl403qNk03ZVmU591X-52" value="return" style="html=1;verticalAlign=bottom;endArrow=open;dashed=1;endSize=8;exitX=0;exitY=0.95;rounded=0;" edge="1" parent="1" source="qlLl403qNk03ZVmU591X-48">
          <mxGeometry relative="1" as="geometry">
            <mxPoint x="329.5" y="496" as="targetPoint" />
          </mxGeometry>
        </mxCell>
        <mxCell id="qlLl403qNk03ZVmU591X-53" value="save info link, token...." style="html=1;verticalAlign=bottom;endArrow=block;entryX=0;entryY=0;rounded=0;" edge="1" parent="1" target="qlLl403qNk03ZVmU591X-42">
          <mxGeometry relative="1" as="geometry">
            <mxPoint x="325" y="559.9999999999998" as="sourcePoint" />
            <Array as="points">
              <mxPoint x="625.5" y="560" />
            </Array>
          </mxGeometry>
        </mxCell>
        <mxCell id="qlLl403qNk03ZVmU591X-54" value="return" style="html=1;verticalAlign=bottom;endArrow=open;dashed=1;endSize=8;exitX=0;exitY=0.95;rounded=0;" edge="1" parent="1" source="qlLl403qNk03ZVmU591X-42">
          <mxGeometry relative="1" as="geometry">
            <mxPoint x="325" y="636" as="targetPoint" />
          </mxGeometry>
        </mxCell>
        <mxCell id="qlLl403qNk03ZVmU591X-55" value="return" style="html=1;verticalAlign=bottom;endArrow=open;dashed=1;endSize=8;rounded=0;exitX=0;exitY=0.984;exitDx=0;exitDy=0;exitPerimeter=0;" edge="1" parent="1" source="qlLl403qNk03ZVmU591X-15" target="qlLl403qNk03ZVmU591X-44">
          <mxGeometry relative="1" as="geometry">
            <mxPoint x="320" y="670" as="sourcePoint" />
            <mxPoint x="240" y="670" as="targetPoint" />
          </mxGeometry>
        </mxCell>
        <mxCell id="qlLl403qNk03ZVmU591X-56" value="checking current user had data in database or link is expired time?" style="html=1;verticalAlign=bottom;endArrow=block;entryX=0;entryY=0;rounded=0;" edge="1" parent="1" target="qlLl403qNk03ZVmU591X-43">
          <mxGeometry relative="1" as="geometry">
            <mxPoint x="330" y="160" as="sourcePoint" />
          </mxGeometry>
        </mxCell>
        <mxCell id="qlLl403qNk03ZVmU591X-57" value="return" style="html=1;verticalAlign=bottom;endArrow=open;dashed=1;endSize=8;exitX=0;exitY=0.95;rounded=0;" edge="1" parent="1" source="qlLl403qNk03ZVmU591X-43" target="qlLl403qNk03ZVmU591X-14">
          <mxGeometry relative="1" as="geometry">
            <mxPoint x="975" y="216" as="targetPoint" />
          </mxGeometry>
        </mxCell>
      </root>
    </mxGraphModel>
  </diagram>
</mxfile>
